<mxfile modified="2022-05-20T01:25:59.425Z" host="app.diagrams.net" agent="5.0 (Windows NT 10.0; Win64; x64) AppleWebKit/537.36 (KHTML, like Gecko) Chrome/101.0.4951.54 Safari/537.36" etag="H2Balb_ZCk9UytcwljmQ" compressed="false" version="18.0.8" type="google">
  <diagram name="Functionality/System Logical Module/Sponsor Information" id="qD6M_oxDVMBFMefki04I">
    <mxGraphModel grid="1" page="1" gridSize="10" guides="1" tooltips="1" connect="1" arrows="1" fold="1" pageScale="1" pageWidth="827" pageHeight="1169" math="0" shadow="0">
      <root>
        <mxCell id="EUdj9k4-ygwC6GXZzMeQ-0" />
        <mxCell id="DUBSgx6bod0XztLXTJJ8-1" value="Notes" parent="EUdj9k4-ygwC6GXZzMeQ-0" />
        <mxCell id="DUBSgx6bod0XztLXTJJ8-0" value="Information about the organisation that commissioned the system&#39;s development, including organisation Name, Contact channel information, etc." style="shape=note;whiteSpace=wrap;html=1;size=14;verticalAlign=top;align=left;spacingTop=-6;strokeWidth=1;fillColor=none;fontSize=12;" vertex="1" parent="DUBSgx6bod0XztLXTJJ8-1">
          <mxGeometry x="400" y="200" width="200" height="70" as="geometry" />
        </mxCell>
        <mxCell id="3p7hJ3qPCMq-kQCpYzpF-1" value="Diagram/Use Cases" parent="EUdj9k4-ygwC6GXZzMeQ-0" />
        <mxCell id="3p7hJ3qPCMq-kQCpYzpF-3" value="Edit Sponsor&lt;br style=&quot;font-size: 12px;&quot;&gt;Information" style="ellipse;whiteSpace=wrap;html=1;comic=1;strokeColor=#82b366;strokeWidth=2;fillColor=none;fontSize=12;align=center;" vertex="1" parent="3p7hJ3qPCMq-kQCpYzpF-1">
          <mxGeometry x="240" y="280" width="120" height="40" as="geometry" />
        </mxCell>
        <mxCell id="3p7hJ3qPCMq-kQCpYzpF-4" value="Create Sponsor&lt;br style=&quot;font-size: 12px;&quot;&gt;Information" style="ellipse;whiteSpace=wrap;html=1;comic=1;strokeColor=#82b366;strokeWidth=2;fillColor=none;fontSize=12;align=center;" vertex="1" parent="3p7hJ3qPCMq-kQCpYzpF-1">
          <mxGeometry x="240" y="200" width="120" height="40" as="geometry" />
        </mxCell>
        <mxCell id="3p7hJ3qPCMq-kQCpYzpF-5" value="Read Sponsor&lt;br style=&quot;font-size: 12px;&quot;&gt;Information" style="ellipse;whiteSpace=wrap;html=1;comic=1;strokeColor=#82b366;strokeWidth=2;fillColor=none;fontSize=12;align=center;" vertex="1" parent="3p7hJ3qPCMq-kQCpYzpF-1">
          <mxGeometry x="240" y="360" width="120" height="40" as="geometry" />
        </mxCell>
        <mxCell id="3p7hJ3qPCMq-kQCpYzpF-6" value="Developer" style="shape=umlActor;verticalLabelPosition=bottom;labelBackgroundColor=#ffffff;verticalAlign=top;html=1;comic=0;strokeColor=#000000;strokeWidth=1;fillColor=none;gradientColor=#ffffff;fontSize=12;align=center;" vertex="1" parent="3p7hJ3qPCMq-kQCpYzpF-1">
          <mxGeometry x="130" y="240" width="20" height="40" as="geometry" />
        </mxCell>
        <mxCell id="3p7hJ3qPCMq-kQCpYzpF-7" value="User" style="shape=umlActor;verticalLabelPosition=bottom;labelBackgroundColor=#ffffff;verticalAlign=top;html=1;comic=0;strokeColor=#000000;strokeWidth=1;fillColor=none;gradientColor=#ffffff;fontSize=12;align=center;" vertex="1" parent="3p7hJ3qPCMq-kQCpYzpF-1">
          <mxGeometry x="130" y="350" width="20" height="40" as="geometry" />
        </mxCell>
        <mxCell id="3p7hJ3qPCMq-kQCpYzpF-8" value="" style="endArrow=open;endFill=1;endSize=12;html=1;strokeColor=#000000;fontSize=10;entryX=0;entryY=0.5;entryDx=0;entryDy=0;" edge="1" parent="3p7hJ3qPCMq-kQCpYzpF-1" target="3p7hJ3qPCMq-kQCpYzpF-4">
          <mxGeometry width="160" relative="1" as="geometry">
            <mxPoint x="160" y="260" as="sourcePoint" />
            <mxPoint x="320" y="315" as="targetPoint" />
          </mxGeometry>
        </mxCell>
        <mxCell id="3p7hJ3qPCMq-kQCpYzpF-9" value="" style="endArrow=open;endFill=1;endSize=12;html=1;strokeColor=#000000;fontSize=10;entryX=0;entryY=0.5;entryDx=0;entryDy=0;" edge="1" parent="3p7hJ3qPCMq-kQCpYzpF-1" target="3p7hJ3qPCMq-kQCpYzpF-3">
          <mxGeometry width="160" relative="1" as="geometry">
            <mxPoint x="160" y="260" as="sourcePoint" />
            <mxPoint x="240" y="265" as="targetPoint" />
          </mxGeometry>
        </mxCell>
        <mxCell id="3p7hJ3qPCMq-kQCpYzpF-10" value="" style="endArrow=open;endFill=1;endSize=12;html=1;strokeColor=#000000;fontSize=10;entryX=0;entryY=0.5;entryDx=0;entryDy=0;" edge="1" parent="3p7hJ3qPCMq-kQCpYzpF-1" target="3p7hJ3qPCMq-kQCpYzpF-5">
          <mxGeometry width="160" relative="1" as="geometry">
            <mxPoint x="160" y="380" as="sourcePoint" />
            <mxPoint x="240" y="220" as="targetPoint" />
          </mxGeometry>
        </mxCell>
        <mxCell id="j_jQY6_MoA7ddAZkF85R-0" value="Title/Diagram" parent="EUdj9k4-ygwC6GXZzMeQ-0" />
        <mxCell id="j_jQY6_MoA7ddAZkF85R-1" value="&lt;font style=&quot;font-size: 12px&quot;&gt;Diagram: Base System Logical Module -&amp;nbsp;Functionality -&amp;nbsp;System Sponsor Information&lt;/font&gt;" style="text;strokeColor=none;fillColor=none;html=1;fontSize=12;fontStyle=2;verticalAlign=middle;align=left;shadow=0;glass=0;comic=0;opacity=30;fontColor=#808080;" vertex="1" parent="j_jQY6_MoA7ddAZkF85R-0">
          <mxGeometry x="120" y="460" width="520" height="20" as="geometry" />
        </mxCell>
        <mxCell id="EUdj9k4-ygwC6GXZzMeQ-1" value="About" parent="EUdj9k4-ygwC6GXZzMeQ-0" />
        <UserObject label="" tooltip="ABOUT&#xa;&#xa;The sponsor is the organisation that is paying for the development of the system.&#xa;&#xa;&#xa;&#xa;Note that a User Interface will most probably want to refer to the Reseller information." id="d_qLapBw-uQUA25uXczn-0">
          <mxCell style="shape=image;html=1;verticalAlign=top;verticalLabelPosition=bottom;labelBackgroundColor=#ffffff;imageAspect=0;aspect=fixed;image=https://cdn1.iconfinder.com/data/icons/hawcons/32/699014-icon-28-information-128.png;shadow=0;dashed=0;fontFamily=Helvetica;fontSize=12;fontColor=#000000;align=center;strokeColor=#000000;fillColor=#505050;dashPattern=1 1;" vertex="1" parent="EUdj9k4-ygwC6GXZzMeQ-1">
            <mxGeometry x="660" y="460" width="20" height="20" as="geometry" />
          </mxCell>
        </UserObject>
      </root>
    </mxGraphModel>
  </diagram>
</mxfile>
